<svg xmlns="http://www.w3.org/2000/svg" viewBox="0 0 512 512">
  <defs>
    <!-- iOS Style Gradient Background -->
    <linearGradient id="bg" x1="0%" y1="0%" x2="100%" y2="100%">
      <stop offset="0%" stop-color="#2D9CDB" />
      <stop offset="100%" stop-color="#0052CC" />
    </linearGradient>
    
    <!-- Desert Gold Gradient for the Hex -->
    <linearGradient id="hexGrad" x1="0%" y1="0%" x2="0%" y2="100%">
      <stop offset="0%" stop-color="#F2C94C" />
      <stop offset="100%" stop-color="#F2994A" />
    </linearGradient>

    <filter id="shadow" x="-20%" y="-20%" width="140%" height="140%">
      <feDropShadow dx="0" dy="8" stdDeviation="12" flood-color="#000000" flood-opacity="0.3"/>
    </filter>
  </defs>

  <!-- iOS Squircle Background -->
  <rect width="512" height="512" rx="115" ry="115" fill="url(#bg)" />

  <g filter="url(#shadow)">
    <!-- Catan Hexagon (Centered) -->
    <path d="M256 100 L390 177 L390 334 L256 411 L122 334 L122 177 Z" fill="url(#hexGrad)" />
    
    <!-- Stylized Dice on the Hex -->
    <!-- First Die (Left, angled) -->
    <g transform="translate(200, 300) rotate(-15)">
      <rect x="-60" y="-60" width="120" height="120" rx="20" ry="20" fill="#FFFFFF" />
      <!-- Dots for a 4 -->
      <circle cx="-25" cy="-25" r="12" fill="#0052CC" />
      <circle cx="25" cy="-25" r="12" fill="#0052CC" />
      <circle cx="-25" cy="25" r="12" fill="#0052CC" />
      <circle cx="25" cy="25" r="12" fill="#0052CC" />
    </g>

    <!-- Second Die (Right, slightly higher, angled) -->
    <g transform="translate(320, 240) rotate(10)">
      <rect x="-60" y="-60" width="120" height="120" rx="20" ry="20" fill="#FFFFFF" />
      <!-- Dots for a 3 -->
      <circle cx="-25" cy="-25" r="12" fill="#FF3B30" />
      <circle cx="0" cy="0" r="12" fill="#FF3B30" />
      <circle cx="25" cy="25" r="12" fill="#FF3B30" />
    </g>
  </g>
</svg>
